<svg xmlns="http://www.w3.org/2000/svg" xmlns:xlink="http://www.w3.org/1999/xlink" viewBox="0 0 2717.48 1853.24"><defs><style>.cls-1{fill:none;}.cls-2{fill:#fff;stroke:#fff;stroke-linecap:round;stroke-linejoin:round;stroke-width:216px;}.cls-3{fill:#231f20;}.cls-4{fill:#f5886e;}.cls-5{clip-path:url(#clip-path);}.cls-6{fill:#5d913f;}.cls-7{fill:#78b354;}.cls-8{fill:#de3045;}</style><clipPath id="clip-path"><rect class="cls-1" x="2410.63" y="1122.14" width="138.03" height="138.03" transform="translate(-267.5 1047.31) rotate(-22.66)"/></clipPath></defs><title>Asset 2</title><g id="Layer_2" data-name="Layer 2"><g id="Layer_1-2" data-name="Layer 1"><path class="cls-2" d="M151.57,614.3a198.25,198.25,0,0,0,39.09,14.37q21.89,5.72,44.41,10.24t43.8,8.16q21.28,3.64,38.37,8.22t27.83,10.47q10.77,5.91,11.6,14.47.51,6.45-13,17.08t-35,19.28a206.32,206.32,0,0,1-46.73,12.46,106.11,106.11,0,0,1-48.2-3.36q-23-7.17-40-28.38t-21-62.5L149,628.87l-6.95,10.92q0,9.81-.09,19.62.31,8.69.93,19.19a193,193,0,0,0,2.16,20.08q-2.43-11.59-3.7-21.19t-1.87-16.58q-.76-8.05-1.26-14.5-1.27,8.93-1.77,19.34a217.74,217.74,0,0,0-.24,22.1q.44,12.74,1.86,28.29t13,34.67a141.13,141.13,0,0,0,29.85,34.65,138,138,0,0,0,42.62,24.42q24.3,8.85,51.9,4.4a287.48,287.48,0,0,0,52-13.32,120.14,120.14,0,0,0,41.92-25.3q17.49-16.44,26.45-41.86T401,671.42q-3.22-30-20.22-50.92a142.61,142.61,0,0,0-41-34.48,241.5,241.5,0,0,0-50.85-21.46q-26.88-7.9-49.93-12.34t-38.32-6.32q-15.3-1.89-15.18-4.63-.27-1.59,13-8.64t33.93-15.84q20.63-8.77,46-17.24a311.2,311.2,0,0,1,48.67-12.23q7.61-20.29,3.74-34.11T319.58,430.8a60.79,60.79,0,0,0-22.73-15.93q-4.26.69-20.22,4.64t-37.26,10.38q-21.28,6.45-44.57,15.66A305,305,0,0,0,152.36,466q-19.14,11.27-31.18,24.38t-10.25,27.53c-1.06.17-1.87,1.94-2.41,5.29-.26,2.95-.42,7.51-.51,13.7a253.61,253.61,0,0,0,1.55,26.43,49.89,49.89,0,0,0,13.25,29.72A99,99,0,0,0,151.57,614.3Z"/><path class="cls-2" d="M392,585.73a191,191,0,0,0,28.49,41.41,139.38,139.38,0,0,0,40.16,31.08,79.82,79.82,0,0,0,49,8.15,75.8,75.8,0,0,0,30.68-10.69A87.38,87.38,0,0,0,564,633.87a121.51,121.51,0,0,0,16.58-30.45,169.68,169.68,0,0,0,9.24-37.17q5.8,25.74,18.29,57.49a214.65,214.65,0,0,0,34.5,58.41q22,26.67,55.4,42.78t81,10.59q29.44-3.13,48.63-20.94t29.77-44.85q10.61-27,12.53-60.58A336.92,336.92,0,0,0,866.78,541a346.87,346.87,0,0,0-16.91-67.51,286.7,286.7,0,0,0-17.15-38.7,29.26,29.26,0,0,0,11.94-.22q6.81-1.64,27.07-6t56-12.33q5.61,28,11.52,59.4t11.55,62.94q5.64,31.5,11,61.13t9.43,53.21q4.08,23.58,7.19,39.41t4.33,20q1.05-.18,1.65-3.27c.39-2.06.73-4.38,1.05-7a70,70,0,0,0,1.19-9.46l6.92,12.5,5.19-11.73,4.24-.69a18.77,18.77,0,0,1,.82-5q1.26-5.64,2.16-6.89c1.42-2.4,2.9-3.37,4.43-2.89a3.6,3.6,0,0,1,1.85,1.33l5.4-20.48,4.33-.16,7.47-27.89q-1.51-36.24-4.07-75.59-2.22-34-5.87-75t-9.12-81.59q16.8-3.79,35.26-7.61c7.72-1.59,15.68-3.25,23.81-5q.79,3.51,1.59,7.14,6.06,27.33,12.23,58.74t12.08,62.86q5.91,31.46,11.25,61.09t10,53.11q4.64,23.5,7.73,39.33t4.32,20q1.07-.18,3.74-3.87a22.5,22.5,0,0,0,2.14-3.62l1.92-15,5.29,2.41,7-14.19,13.84-12,3.63-21.28,6.12-2.62.42-14.23,4.48,4.18c-.51-3.19-.91-6.75-1.18-10.7q-.35-5.4-1.18-12.34t-1.25-16.14q10.8-3.91,23.46-8.15t25-8.41q12.4-4.18,23.33-7.32a169.17,169.17,0,0,1,18.89-4.42,24.65,24.65,0,0,0,6.38-4.29q8.77,34,19.19,63.06t23.06,49.91a9.32,9.32,0,0,0,3.63-1.13c1.06-.17,1.71-1.73,2-4.68l.37-4.41,6.28-1.56,1.89-5.21,6.6,3.84,2.2-33.58,3.88.46,3.8-.08.52-17h3.28l1.26-5.65q-5.43-30.17-9.5-65.45-3.84-30.42-7.37-69.06t-4.64-82.58q-1.26-34.63-2.14-53.57t-6.4-29.46q-4.72-9-15.85-12.14a74.24,74.24,0,0,0-24.34-2.33,121,121,0,0,0-26.23,4.52q-13,3.74-20.9,8.83.21,11.4,1.7,32.4t4.95,47.4q3.45,26.4,8.12,57t11.34,61.61a410.37,410.37,0,0,0-45.15,5.41A434.55,434.55,0,0,0,1166.73,493q-3.12-29.44-6.91-61.24t-7.7-62.75q-3.43-24.48-10-39.77a90,90,0,0,0-5.7-11.2,80.44,80.44,0,0,0,1.58-15.91l-14,1.22a44.27,44.27,0,0,0-16.36-8.84,52.77,52.77,0,0,0-19.62-1.72,76.06,76.06,0,0,0-17.87,4q-8.24,3-13.81,5.5a9.81,9.81,0,0,0-5.46,5,10.58,10.58,0,0,0-.82,2.7q-40.93,3.75-79.89,8.45A56.11,56.11,0,0,0,953.94,314a67.55,67.55,0,0,0-15.77.11,78.21,78.21,0,0,0-14.47,3.16,72.64,72.64,0,0,0-11.24,4.54A18.7,18.7,0,0,0,907.3,327q-27.06,4.38-50.77,9.3t-43.45,10.85q-7.26,2.26-10.61,10.15a49.63,49.63,0,0,0-3.58,18.29,74.46,74.46,0,0,0,.94,13.26,149.82,149.82,0,0,0-20.1-17.25q-23.09-16.4-50-18-.54.09,4.89,3.3a131,131,0,0,1,13.21,9.29,142.92,142.92,0,0,1,16.37,15.33,84.53,84.53,0,0,1,14.35,21.36A80.18,80.18,0,0,0,763,384.37a171.73,171.73,0,0,0-18.71-14.67q-9.16-6.15-22.91-13.72a23.68,23.68,0,0,0-4.6.2l-4.51.73-2.94,5.38q14.71,6.87,29.33,29.83t26,54.88a404.61,404.61,0,0,1,17.66,68.76,290.52,290.52,0,0,1,3.6,71q-2.64,34.2-15.5,62.42T731,691.54a139.91,139.91,0,0,1-31-45.36,286.45,286.45,0,0,1-17.9-56.74,450.65,450.65,0,0,1-8.33-59.92q-2.12-29.89-2.31-54.63t.64-41.5q.82-16.74.23-20.46-2.84-17.51-15.79-25.22A63.42,63.42,0,0,0,628.15,379a88.61,88.61,0,0,0-29.75,2.91q-14.35,4-18.88,9.59c-.6.83-.74,2.12-.45,3.89a26.81,26.81,0,0,0,1.38,5.22c.7,2.06,1.63,4.46,2.8,7.17q-1.2,9.47-1.6,20.41-.67,9.38-1.12,21.69T580,475.25q-10.15-25.59-26.38-40.12t-33.58-20.71q-17.32-6.18-32.67-5.06t-23.77,6.3c-2.3,1.46-3.68,3-4.13,4.75s-.8,2.95-1,3.71c.11.71.76,1.33,1.93,1.87a14.88,14.88,0,0,1,2.38,1.25c.58,1.36-.12,2.56-2.13,3.61l-.09-.53q-1.67-3.54-8-8.79a57.55,57.55,0,0,0-14.76-8.77A51.83,51.83,0,0,0,420,408.82a28.92,28.92,0,0,0-17.22,4.7q-1.95,1.41-7.88,11.89t-11.26,28q-5.34,17.47-7.76,41.28T378,546.07Q380.82,563.58,392,585.73Zm55.87-112.52q5.21-18.27,9.42-29.3c2.77-.8,4.3-2.5,4.61-5.1a15.94,15.94,0,0,0-.58-7,39.35,39.35,0,0,1,25.17,4.1q10.14,5.44,20.32,19.59t14.91,43.33q3.78,23.35,1.71,40.84t-6.68,29.41q-4.6,11.91-10.43,18t-9.61,6.19q-2.13.35-8.92-2.92t-14.66-11.51Q465.29,570.62,458,556t-10.87-36.91Q442.67,491.5,447.89,473.21Z"/><path class="cls-2" d="M621.16,689.16c.71-.11,1-.34,1-.7q-5.37-6.19-19-10t-32.29-4.3a317.93,317.93,0,0,0-40,1.58,314.17,314.17,0,0,0-42.41,7.13,269.46,269.46,0,0,0-39.61,12.68q-18.64,7.63-31.15,17.84a75.85,75.85,0,0,0-2.17,28.67q1.6,15,7.47,26t15.89,15.67q10,4.63,23-2.36,15.58-8,35.21-16.32t40.82-15.32A412,412,0,0,1,581.69,738a228.88,228.88,0,0,1,44.4-5l5.2,1.88a63.64,63.64,0,0,1,1.11-10c.3-2.59.54-5.08.7-7.47s.33-4.14.51-5.26c.23-.76-.14-2-1.13-3.63a40.27,40.27,0,0,0-3.51-4.88L623.69,698l4.07-1.75-8.27-7.37A4,4,0,0,0,621.16,689.16Z"/><path class="cls-2" d="M1341.34,342q4.7,24,9.52,52.11t9.45,56.74q4.65,28.67,8.84,56.3t7.9,50.46a74.67,74.67,0,0,0-10.38,6.59q-9.21,6.93-7.29,20.51a77.35,77.35,0,0,0,8.88,26.34,82.67,82.67,0,0,0,16,21.11q9,8.36,14.83,4.13a790.18,790.18,0,0,1,73.85-46.8q37.2-20.73,67.24-35.39t49.43-22.71q19.39-8,21.52-8.38a18.21,18.21,0,0,0,7.38-8.28,45.58,45.58,0,0,1,8.45-11.71,57.66,57.66,0,0,1,6.35-6.2,65.18,65.18,0,0,1,7-5.23,92.39,92.39,0,0,1,7.89-5.09l-15.12.82,18.45-12.7q3.33,17.84,6.59,34.51,4.71,24,8.59,43t6.48,31.63q2.6,12.64,3.64,15.75c1.06-.17,1.88-1.31,2.45-3.39a7.85,7.85,0,0,1,2.81-4.54,9.32,9.32,0,0,1,2.82.63l2.3.72,4.73-11.12,4.33-.15a18.84,18.84,0,0,1,.83-5c.47-1.52.81-2.76,1-3.71s.43-1.78.68-2.55a23.53,23.53,0,0,1,5.5-6.34,30.1,30.1,0,0,1,3.46-2.2c.89-3.41,1.83-6.64,2.79-9.71a62.6,62.6,0,0,1,2.33-7.45c.89-2.33,1.58-4.25,2.06-5.78,1.07-2.35,2-4.49,2.77-6.44s1.4-3.67,1.88-5.21a28.29,28.29,0,0,0,2-4.67q-.51-6.45-1.35-15-.67-7.5-1.77-17.68t-2-22.55l3.18-.51q8.48-1.38,20.62-3.88a262.6,262.6,0,0,0,26.1-6.95,493.12,493.12,0,0,1,42,44.12,219.58,219.58,0,0,1,33.9,54.7l5.64,4.54a46,46,0,0,1,5.57-2.54q2.58-1,4.65-1.57a11,11,0,0,0,3.06-1.31c.7-.12,1.49-.89,2.35-2.29s1.71-2.91,2.54-4.49a20.64,20.64,0,0,0,2.86-5.92l1.23.89a4.85,4.85,0,0,1,1,.94,3.94,3.94,0,0,0,1,.93q1.28-8.91-3-23.75T1859.16,491q-6.56-16.9-15-35.16a145.87,145.87,0,0,1,14.39,21.64,185.91,185.91,0,0,1,10.66,25.5,151.82,151.82,0,0,1,7.09,33.71q1.89-25.35-9.24-55.42a200.92,200.92,0,0,0-31-55.16A168.36,168.36,0,0,0,1861,406.29a107.57,107.57,0,0,0,19.16-24.61,100.84,100.84,0,0,0,10.93-30.09,94.79,94.79,0,0,0,1.46-23.84q4,23.81,8.14,47.88,5.64,33.14,10.75,64.71t9.23,57.05q4.13,25.49,7.14,42.42t4.23,21.1q2.92-5.37,5.34-7.4a18.77,18.77,0,0,1,2.48-1.49,9.92,9.92,0,0,1,3.09-1l3.72-.6,4.25-20.84,7.32,4.81,3.36-19.61,7.27-5.53,8.72-30.28L1981,480q-1.38-25.37-3.45-55-1.4-25.38-3.89-57.65t-5.42-67.2q16.77,22.89,34.11,47.58t35.13,48.78q17.78,24.08,35.62,46.79T2108.17,485q6.2,14.81,14.52,22.43t17.06,9.49a37.49,37.49,0,0,0,17.37-.36,48,48,0,0,0,15.72-7.17,52.88,52.88,0,0,0,11.81-11.17,31.3,31.3,0,0,0,6-11.86,23.59,23.59,0,0,0-.88-8.85q-1.35-4.93-4.44-15.61t-7.72-29.25q-4.65-18.59-10.6-50.3t-12.53-79.12q-6.59-47.4-13.77-115.41c-.58-1.35-1.4-3-2.45-5.05q-4.74-9-9.91-17.46T2118.76,150q-5.09-7.89-10.62-15.17a11.92,11.92,0,0,1-3.63,1.13c-2.84.46-4.87.25-6.1-.65a35.28,35.28,0,0,1-2.32-4.25q-1.62-3.27-3-6.86a70.6,70.6,0,0,0-3-6.6,14,14,0,0,0-2.19-3.46c-.83-.59-1.36.59-1.61,3.53s-.79,4.12-1.61,3.53-1.81-2.79-3-6.6-2.16-6-3-6.6q-1.57,13.88-1.18,43.22t1.86,67q1.45,37.62,4.35,79.08t6.34,79.58q-12.2-18.18-27.51-42.12t-31.84-50.4q-16.54-26.44-33-54t-30.55-54.15q-6.92-12.5-17.64-18.11a56.28,56.28,0,0,0-22.55-6.43,64.21,64.21,0,0,0-24,3.07,96.48,96.48,0,0,0-22.54,10.46,62.9,62.9,0,0,0-15.49,5.22c-2,1.06-3.85,2.08-5.5,3.07q3.57,8.7,8.44,28.59t10.42,47.6q4,19.83,8,42.18-6.32-23-17.87-39.48-17-24.23-40.4-37.58a141.61,141.61,0,0,0-51.79-17.22,271.14,271.14,0,0,0-57.19-1.64,356.15,356.15,0,0,0-56.3,8.84,482.85,482.85,0,0,0-49.65,14.57,305.27,305.27,0,0,0-35.19,14.78l-.48-3c-.29-1.77-.55-3.36-.78-4.78a12.23,12.23,0,0,1-.07-3.8q-12.73,2.06-39.89,5.91t-58.42,9.18q-31.27,5.34-61.88,11.37T1365,261.08a52.27,52.27,0,0,0-15.61,2.8q-7.5,2.56-13.15,4.57-6.57,3.26-12.14,5.78,3.5,8.16,8,25.94T1341.34,342Zm415.44-71.31q27.93-.71,47.67,3.45t30.66,12.74q10.91,8.59,12.19,19.81,1.08,13.45-11.27,28t-32.57,27.6a278.36,278.36,0,0,1-45.23,23.38,221.09,221.09,0,0,1-48.9,14.18q-2.44-25.2-5.55-51.11t-6.69-51.48q-.87-5.29-1.59-9.82a73.08,73.08,0,0,0-2-8.67Q1728.84,271.38,1756.78,270.66ZM1553.94,261c0,.21,0,.42,0,.63l-.91.1C1553.33,261.46,1553.63,261.22,1553.94,261Zm-94.74,53.76q17.57-5.82,31.78-10.59l23.77-7.93c6.37-2.12,9.9-3.24,10.62-3.35a52.79,52.79,0,0,1,4.74-2.67,63.33,63.33,0,0,0,7.67-4.79q5-3,10.37-6.57l-.5-6.46,6.61-4.88a59.08,59.08,0,0,0,5,17.71,67.18,67.18,0,0,0,11.89,17.95q7.26,7.82,14,8.9a314.44,314.44,0,0,1,31.34-11.61q4.59,21.6,10,46.32t10.72,51.1q-31.1-6.94-37.47-19.53-.67,9.36,4.17,22.46a121.83,121.83,0,0,0,14.77,27.3,19.22,19.22,0,0,1-5.45-5.11,73.09,73.09,0,0,1-6.11-9.09q-3-5.22-5.87-11t-4.76-10.94a35,35,0,0,0,2.33,12.7q2.52,7.22,3.31,8.72,8.85,17.64,21,28.73a93.37,93.37,0,0,0,15.54,11.6,266,266,0,0,0-29.27,4.51,488.08,488.08,0,0,0-58.37,16.26q-29.93,10.29-59.15,23.19t-54.92,25.76q0-10.32-.5-26.6T1434.61,459q9.73-3.75,19.13-8t17.49-8q8.1-3.76,13.47-6a48.44,48.44,0,0,1,6.42-2.4q2.48-1.49,6.69-4.08t8.11-5.4q5-3,9.84-6.49l2.68-7,18.34-7.87-1.39-5.22,15.71-14-7,.58,15-11.68.06-13.08q.7-2.3,1.44-4.59a16.79,16.79,0,0,0,1-7.25q-10.62,1.73-26.22,4.52t-33.45,7.05q-17.84,4.25-36.42,8.89t-35.75,9.59q-.48-9.72-1.5-19.36t-2.2-20.34q-.51-3.18-.77-6.41c-.16-2.15-.42-4.29-.76-6.41Q1441.63,320.57,1459.2,314.73Z"/><path class="cls-2" d="M1067.38,1258.16q-16.53-102.14-63.25-172.26T891.53,971.51q-65.89-44.28-145.82-66.07a840.52,840.52,0,0,0-161.08-27.61,993.24,993.24,0,0,0-158.34,1q-77.22,6.81-139,18.71T184.83,924.21Q144.32,939,137.06,949q-14.43,20-12.32,48.72a163.62,163.62,0,0,0,14,55.2,188,188,0,0,0,29.7,47q17.85,20.5,34.83,24Q313.34,1078.36,421,1064.7q11.28,38.61,22.94,91t24.17,110.39q12.53,58,24.34,119.2T514.66,1503q-68-6.66-112.6-28.51t-48.36-45.22c-1.72-10.65-3.73-16.45-6-17.34s-4.41.07-6.47,2.94q-4.14,5.73-7.46,16.36,10.37,64,33.21,107.66t52.13,72.39q29.28,28.74,62.52,42.93a313.59,313.59,0,0,0,65.8,20.29q5.79,28.13,9.41,46.47t5.83,24.32q2.46-.4,6.19-8.58a31.92,31.92,0,0,0,2.5-8l14.13,1.51,7.53-31.53,22.35-2.36,4.8-17.19q10-.35,18.76-1.14c5.8-.51,10.75-1.11,14.86-1.77q28.3-4.59,73-16.88t94.34-33.58A655.71,655.71,0,0,0,920,1572.5a363.05,363.05,0,0,0,85.42-77q36.28-45,54.5-104.18T1067.38,1258.16Zm-441.09,240a5.48,5.48,0,0,1-2.36,1,8.59,8.59,0,0,1-3.8,0,5.68,5.68,0,0,0-2.56-.21l-12.42-147,23.5,145.22A5.54,5.54,0,0,0,626.29,1498.15Zm309-190.19q-26.55,39-71.07,75.91t-101.06,66.24q-56.52,29.37-112.32,43.44-4.95-38.34-11-91.68t-13.2-112.79q-7.11-59.46-14.91-119.46t-16-110.45q78,6.32,143.56,24.76T853,1127.41q48.25,25,75.59,53.44t30.28,54.46Q961.74,1268.94,935.25,1308Z"/><path class="cls-2" d="M2104.43,1380.43q-1.74-.63-3.45-1.14,2.51-78.61,12.09-156.48,15.55-126.27,35.63-232.46t39.91-182.64q19.83-76.44,25.1-106.36a116.62,116.62,0,0,0-.41-22,112.18,112.18,0,0,0-5.93-24.93q-.79-4.9-7.39,1.2a32.52,32.52,0,0,0-6.19,8.57,198.06,198.06,0,0,1-.09-24,112.59,112.59,0,0,0,.19-18.35q-.67-8.08-1.08-10.56a38,38,0,0,0-7.84-9.47c-2.92-2.46-5.35-4.38-7.25-5.77a59.47,59.47,0,0,0-8.18-3.73,109.15,109.15,0,0,0-4-17,123.18,123.18,0,0,1-3.84-12c-1.08-4-2.17-6.79-3.24-8.31q-3.08-3.3-8.61,1.39t-8.42,2.63a22.14,22.14,0,0,1-9.06-13.06q-1.92-7.89-5.2-4.85-33.15,76.13-61.5,154.57t-53.54,160.85q-25.2,82.39-47.44,171.23t-41.77,186.73q-12.35-37.14-29.34-79.87t-36.37-88.2q-19.38-45.48-40.16-92t-39.43-91.49q-22.71-54.42-47.55-87t-51-49.85q-26.19-17.22-52.59-20.54a175.16,175.16,0,0,0-49.8.49q-6.72,1.23-13.41,3l-.93-5.74a91,91,0,0,0-2.41-11,19.52,19.52,0,0,1-.78-8.72l-92.3,14.94q-62.77,10.15-134.47,23.65t-143.1,28.85q-71.4,15.33-118.2,30.49-38.55,3.72-66.69,17.11-15.21,7.51-29.18,14.82,9.34,18.71,19.81,59.95t22.6,96.74q12.12,55.53,24.54,120.43t24.39,131.2q12,66.25,23,130.15t20.77,116.62a153.7,153.7,0,0,0-13.26,7.83q-6.27,4.18-12,7.63-20.16,15.9-15.09,47.27a176,176,0,0,0,21.76,60.26q16.65,28.89,38,47.53t34.9,8.88q84.95-60.46,169.72-110.19t154.23-85q69.42-35.22,114.31-54.49t49.8-20.06a43.45,43.45,0,0,0,15.87-19q5.6-12.27,18.17-28.2a134.45,134.45,0,0,1,14.73-14.38,147.79,147.79,0,0,1,16.35-12.11,207.65,207.65,0,0,1,18.3-11.81l-35.06,1.89,43-31,3.77-15.76.47-.79q23.05,50.82,42.44,94.25,21.78,48.9,36.9,83.7t21.19,49q4.89,6.78,13.82,3.45t20-12.72q12.51,38.41,61.89,43,47.37,4.44,147.6-27.56a41,41,0,0,0,6.13-.32,63.54,63.54,0,0,0,14.24-3.38,31.73,31.73,0,0,0,10.33-6c2.65-2.39,4-4.85,3.92-7.35-.11-.7.42-3.47,1.61-8.33a164.53,164.53,0,0,0,3.09-17.44,150.66,150.66,0,0,0,1.19-20.9,48.82,48.82,0,0,0-3.58-18.79Q2117.29,1385.07,2104.43,1380.43ZM1644.8,1228.5a1231.93,1231.93,0,0,0-135,39.54q-69.3,24.46-136.87,55.61t-125.53,63.25q-.09-24-1.76-61.59t-5.94-87.45q21.15-9.73,43.54-19.67t40.57-18.57q18.16-8.62,31.12-14.51t15.4-6.28q5.74-3.43,15.42-10.07t18.72-13.13q11.49-6.9,22.82-15.06l5-16,42.32-19.47-4.46-11.91,36.24-33.65-16,2.59,34.56-28.33.15-30.33c1.1-3.54,2.2-7.09,3.33-10.65a20.2,20.2,0,0,0,1.68-9.11,23.88,23.88,0,0,1,.65-7.68q-24.63,4-60.62,11.7t-77.36,17.58q-41.35,9.85-84.85,21.94t-83.33,23.58q-1.14-22.54-4.09-44.8T1214.72,959c-.79-4.92-1.4-9.88-1.77-14.87s-1-9.94-1.78-14.86q39.42-14,79.46-28t72.88-25.69q32.85-11.61,55-19t24.63-7.78c1.51-1.07,5.14-3.35,10.9-6.81s11.64-7.35,17.68-11.7q11.51-6.9,24.06-15.26l-1.17-15,5.85-4.66q5.91,6.61,12.14,14.38,26.93,33.53,55.47,81.32T1627.55,997q30.87,58.17,59.6,118.55,23.91,50.3,46.26,99.06A602.17,602.17,0,0,0,1644.8,1228.5Z"/><path class="cls-2" d="M2396.86,1284q4,5.16,8.49,10.12a137.68,137.68,0,0,0,39.66,30.69,78.77,78.77,0,0,0,48.36,8,75.22,75.22,0,0,0,39.4-17.4,105.64,105.64,0,0,0,27-35.83q10.23-21.55,13.11-48.64a212.3,212.3,0,0,0-1.88-56.44q-5.85-36.16-22.38-56.89t-35.77-30q-19.24-9.26-37.49-9t-27.44,6.59c-2.28,1.44-3.64,3-4.08,4.69s-.79,2.91-1,3.66c.11.71.75,1.32,1.91,1.84a17.4,17.4,0,0,1,2.35,1.24,1.72,1.72,0,0,1,0,1.62c-.74.48-1.46,1-2.17,1.51l-.05-.09q-1.65-3.48-7.86-8.68a56.88,56.88,0,0,0-14.58-8.66,51,51,0,0,0-17.56-3.88,28.47,28.47,0,0,0-17,4.63q-1.93,1.39-7.78,11.75T2369,1122.48q-5.28,17.26-7.66,40.77t2,50.77q2.8,17.3,13.87,39.17c1.12,2.21,2.3,4.39,3.51,6.55a2.58,2.58,0,0,0-1.58.4q-1.71,1.08-.52,8.42,1.62,10-5,27.42t-20.16,35a159.85,159.85,0,0,1-33.31,31.74,104.19,104.19,0,0,1-44.91,18.3q-21.5,3.46-40.32-1.55a113.77,113.77,0,0,1-33.58-14.73,88.24,88.24,0,0,1-23.81-22.5q-9.06-12.78-10.57-25.45a113.52,113.52,0,0,1,.95-34,124,124,0,0,1,10.94-33.77,133.13,133.13,0,0,1,20.17-29.89,95.46,95.46,0,0,1,64.17-32.16q19.61-1.83,42.27,5.26,5.86-3.63,9.92-11.83a83.79,83.79,0,0,0,6.41-18.51,133,133,0,0,0,3.07-20.94,86.49,86.49,0,0,0-.74-19.51q-2.19-16.85-19.84-22.87t-41.89-1.29q-24.24,4.73-51.55,20.44t-48.73,42.85q-21.42,27.13-33.17,65.87t-5.18,89.31q5.38,43.23,22.53,72.73t40.67,46.93a129.79,129.79,0,0,0,50.82,23.24,145.74,145.74,0,0,0,54,1.48q34.59-5.61,59.86-23.94a125.28,125.28,0,0,0,38.75-44.73q13.47-26.39,14.15-58.76A142.77,142.77,0,0,0,2396.86,1284Z"/><path class="cls-2" d="M2608.3,1375a39.32,39.32,0,0,0-3.47-4.82l-5.21-5.61,4-1.72-8.17-7.29a4,4,0,0,0,1.66.27q1-.16,1-.69-5.3-6.12-18.28-10a126.15,126.15,0,0,0-30.57-4.47,265,265,0,0,0-37.93,1.57,355.1,355.1,0,0,0-40.58,6.84,217.47,217.47,0,0,0-38.07,12.34,128.53,128.53,0,0,0-30.2,17.8,75.21,75.21,0,0,0-2.14,28.31q1.59,14.81,7.39,25.7t15.68,15.48q9.89,4.57,22.75-2.34,15.39-7.87,33.68-16.21a403.46,403.46,0,0,1,38.17-15,370.71,370.71,0,0,1,41.21-11.24,217.75,217.75,0,0,1,42.79-4.77l5.14,1.86a62.16,62.16,0,0,1,1.09-9.86c.3-2.56.54-5,.69-7.37s.32-4.09.51-5.2C2609.65,1377.82,2609.28,1376.63,2608.3,1375Z"/><path class="cls-3" d="M2491.29,1276.53c-12.16,0-24.95-7.42-36-20.9-12.2-14.86-20.93-35.45-24.57-58-3.91-24.15-1.63-47.63,6.41-66.14,7.23-16.63,18.18-26.91,30.82-29a30.1,30.1,0,0,1,4.74-.38c12.15,0,24.94,7.43,36,20.91,12.21,14.86,20.93,35.45,24.58,58,3.91,24.15,1.63,47.64-6.41,66.14-7.23,16.63-18.18,26.91-30.83,29A30,30,0,0,1,2491.29,1276.53Z"/><path class="cls-3" d="M2472.67,1114.67c8.22,0,17.83,6,26.35,16.34,10.83,13.18,18.6,31.66,21.9,52,3.48,21.5,1.46,43.06-5.54,59.16-5.39,12.4-13.18,20.28-21.35,21.6a16.78,16.78,0,0,1-2.74.22c-8.23,0-17.83-6-26.36-16.34-10.82-13.18-18.6-31.66-21.89-52-3.48-21.49-1.46-43.06,5.53-59.15,5.4-12.41,13.18-20.28,21.36-21.61a17.87,17.87,0,0,1,2.74-.22m0-25a42.41,42.41,0,0,0-6.73.54c-35.14,5.69-56.44,54.68-47.58,109.44,8.29,51.25,40.08,89.38,72.93,89.38a42.41,42.41,0,0,0,6.73-.54c35.14-5.69,56.44-54.68,47.58-109.43-8.3-51.26-40.08-89.39-72.93-89.39Z"/><path class="cls-3" d="M298.71,413.49a60.57,60.57,0,0,1,22.73,15.93q7.37,8.61,11.25,22.41T329,485.93a311.2,311.2,0,0,0-48.67,12.23q-25.32,8.47-45.95,17.25T200.4,531.24q-13.31,7.05-13,8.65-.12,2.75,15.18,4.62t38.32,6.32q23.06,4.45,49.93,12.35a241.46,241.46,0,0,1,50.85,21.45,142.63,142.63,0,0,1,41,34.49q17,20.94,20.23,50.91,3.79,37-5.16,62.38t-26.45,41.86a120,120,0,0,1-41.92,25.3,286.88,286.88,0,0,1-52,13.33q-27.6,4.46-51.9-4.4a138.22,138.22,0,0,1-42.62-24.42,141.17,141.17,0,0,1-29.85-34.66q-11.53-19.09-13-34.66t-1.86-28.3a217.49,217.49,0,0,1,.24-22.09q.49-10.41,1.77-19.35.49,6.45,1.26,14.5.58,7,1.86,16.58t3.7,21.19a195.57,195.57,0,0,1-2.15-20.07q-.61-10.53-.93-19.19l.09-19.62,6.95-10.93,3.68,5.94q4,41.31,21,62.5t40,28.39a106.11,106.11,0,0,0,48.2,3.36,206.85,206.85,0,0,0,46.73-12.46q21.48-8.65,35-19.28t13-17.09q-.84-8.57-11.6-14.46T319.1,653.91q-17.09-4.59-38.37-8.22t-43.8-8.17q-22.52-4.51-44.41-10.24a198,198,0,0,1-39.09-14.37,99,99,0,0,1-28.76-21.22A49.86,49.86,0,0,1,111.42,562a251,251,0,0,1-1.55-26.43q.13-9.28.5-13.7.82-5,2.42-5.29Q111,502.15,123,489t31.18-24.38a303.28,303.28,0,0,1,42.44-20.48q23.28-9.21,44.57-15.66t37.26-10.39Q294.45,414.19,298.71,413.49Z"/><path class="cls-3" d="M731.56,352.15q26.94,1.65,50,18.05t40.67,42.71a271.47,271.47,0,0,1,29.47,59.22,346.78,346.78,0,0,1,16.91,67.52,336.88,336.88,0,0,1,3.13,68.12q-1.93,33.54-12.53,60.58t-29.77,44.84Q810.28,731,780.84,734.13q-47.58,5.52-81-10.59t-55.4-42.77A214.55,214.55,0,0,1,610,622.36q-12.5-31.74-18.29-57.49A169.59,169.59,0,0,1,582.46,602a121.58,121.58,0,0,1-16.58,30.46,87.69,87.69,0,0,1-23.7,21.81A75.79,75.79,0,0,1,511.5,665a79.82,79.82,0,0,1-49-8.14,139.55,139.55,0,0,1-40.16-31.08,190.54,190.54,0,0,1-28.49-41.41q-11.2-22.14-14-39.67-4.45-27.58-2.06-51.4T385.53,452q5.36-17.46,11.27-28t7.88-11.9a28.82,28.82,0,0,1,17.22-4.69,51.82,51.82,0,0,1,17.79,3.93,57.29,57.29,0,0,1,14.76,8.78q6.29,5.25,8,8.78l.09.53c2-1,2.71-2.25,2.13-3.61a16.78,16.78,0,0,0-2.38-1.25c-1.18-.53-1.82-1.15-1.93-1.86.23-.76.57-2,1-3.71s1.83-3.29,4.13-4.75q8.43-5.17,23.76-6.3T521.92,413q17.36,6.18,33.58,20.71t26.38,40.12q0-13.08.51-25.41t1.12-21.7q.39-11,1.6-20.4-1.75-4.08-2.8-7.18a26.62,26.62,0,0,1-1.38-5.22c-.29-1.76-.15-3.06.45-3.89q4.53-5.62,18.88-9.58A88.61,88.61,0,0,1,630,377.57a63.3,63.3,0,0,1,28.38,8.76q12.95,7.71,15.79,25.22.6,3.72-.23,20.46t-.64,41.49q.2,24.76,2.3,54.64A452.56,452.56,0,0,0,684,588.06a285.79,285.79,0,0,0,17.9,56.74,140.13,140.13,0,0,0,31,45.36q26.58-14.11,39.44-42.33t15.5-62.42a291.09,291.09,0,0,0-3.6-71,405.1,405.1,0,0,0-17.66-68.76q-11.43-31.91-26-54.87T711.18,360.9l3-5.38,4.51-.73a24.44,24.44,0,0,1,4.59-.2q13.75,7.57,22.92,13.72A173,173,0,0,1,764.86,383a80.68,80.68,0,0,1,15.52,18.46A85,85,0,0,0,766,380.07a143.66,143.66,0,0,0-16.37-15.32,130.19,130.19,0,0,0-13.22-9.3Q731,352.24,731.56,352.15ZM419.44,712q12.51-10.2,31.16-17.84a270.65,270.65,0,0,1,39.61-12.67,315.78,315.78,0,0,1,42.41-7.14,319.82,319.82,0,0,1,40-1.58q18.6.54,32.29,4.31t19,10c.06.35-.27.58-1,.7a4,4,0,0,1-1.67-.27l8.27,7.37-4.08,1.75,5.28,5.68a39.32,39.32,0,0,1,3.52,4.88c1,1.66,1.36,2.87,1.13,3.63-.19,1.12-.35,2.87-.51,5.25s-.4,4.88-.7,7.47a62.6,62.6,0,0,0-1.11,10l-5.2-1.88a228.88,228.88,0,0,0-44.4,5,413.73,413.73,0,0,0-43.85,11.72q-21.21,7-40.82,15.33T463.67,780q-13,7-23,2.37T424.75,766.7q-5.87-11-7.47-26A76.07,76.07,0,0,1,419.44,712Zm79.14-120.1q3.81-.06,9.62-6.18t10.43-18q4.61-11.91,6.68-29.4t-1.71-40.84q-4.73-29.19-14.91-43.34t-20.32-19.59a39.34,39.34,0,0,0-25.17-4.09,15.9,15.9,0,0,1,.58,7c-.31,2.6-1.84,4.3-4.62,5.11q-4.21,11-9.42,29.3T449,517.7q3.6,22.29,10.87,36.91T475,577.48q7.88,8.26,14.66,11.52C494.2,591.18,497.17,592.14,498.58,591.91Z"/><path class="cls-3" d="M972.05,317.05q40.05-4.85,82.19-8.67t85.64-7.59a84.13,84.13,0,0,1-2,18,75.81,75.81,0,0,1-8.23,21.49,106.67,106.67,0,0,1-16.59,22q-10.47,10.95-27.13,19.1-20,4.33-38.44,8.12t-35.26,7.61q5.46,40.51,9.12,81.58t5.87,75q2.55,39.35,4.07,75.59l-7.47,27.89-4.33.16-5.4,20.48a3.56,3.56,0,0,0-1.85-1.34c-1.54-.47-3,.49-4.43,2.9q-.9,1.25-2.16,6.88a18.85,18.85,0,0,0-.82,5l-4.24.68-5.19,11.73-6.92-12.49a68.3,68.3,0,0,1-1.2,9.45c-.31,2.59-.65,4.92-1,7s-1,3.15-1.65,3.26q-1.23-4.17-4.33-20t-7.19-39.41Q969,628,963.65,598.35t-11-61.13q-5.64-31.49-11.55-62.94T929.6,414.87q-35.76,8-56,12.33t-27.07,6q-11.06,2.34-19.79-2.79a43.18,43.18,0,0,1-14.56-14.26,70.65,70.65,0,0,1-8.74-20.36,79.33,79.33,0,0,1-2.68-21.63,49.74,49.74,0,0,1,3.57-18.28q3.36-7.89,10.62-10.16,19.74-5.91,43.44-10.84t50.78-9.31a18.7,18.7,0,0,1,5.16-5.19,74.26,74.26,0,0,1,11.24-4.54A79.87,79.87,0,0,1,940,312.7a68.1,68.1,0,0,1,15.77-.1A56.11,56.11,0,0,1,972.05,317.05Z"/><path class="cls-3" d="M1320.39,278.65q5.5,10.55,6.4,29.46t2.13,53.58q1.11,43.94,4.65,82.57t7.37,69.07q4.07,35.28,9.5,65.45l-1.26,5.65h-3.28l-.52,17-3.8.07-3.89-.46-2.19,33.58-6.61-3.83L1327,636l-6.28,1.55-.37,4.42c-.26,2.94-.91,4.51-2,4.68a9.5,9.5,0,0,1-3.63,1.13q-12.63-20.84-23.06-49.92t-19.19-63.06a24.68,24.68,0,0,1-6.38,4.3,169.17,169.17,0,0,0-18.89,4.42q-10.93,3.13-23.33,7.31t-25.05,8.41q-12.66,4.24-23.46,8.16.39,9.21,1.25,16.13t1.18,12.34c.27,4,.67,7.51,1.18,10.7l-4.49-4.18-.42,14.23L1168,619.2l-3.63,21.28-13.85,12-7,14.2-5.29-2.41-1.92,15a23.19,23.19,0,0,1-2.14,3.61q-2.67,3.7-3.74,3.87c-.81-2.78-2.25-9.43-4.32-20s-4.65-23.66-7.73-39.32-6.4-33.36-10-53.12-7.31-40.12-11.25-61.08-8-41.92-12.08-62.86-8.19-40.52-12.23-58.75-7.84-34.4-11.39-48.53-6.67-25-9.35-32.53q-.78-1.5.6-4.72a9.71,9.71,0,0,1,5.46-5q5.58-2.54,13.81-5.51a77.07,77.07,0,0,1,17.87-4,52.78,52.78,0,0,1,19.62,1.73,46,46,0,0,1,19,11.09q9,8.36,15.53,23.63t10,39.78q3.91,31,7.7,62.74t6.91,61.25A437.1,437.1,0,0,1,1214,481.31a412.71,412.71,0,0,1,45.15-5.4q-6.66-31.05-11.34-61.61t-8.12-57q-3.46-26.4-5-47.4t-1.7-32.4q7.88-5.07,20.9-8.83a121,121,0,0,1,26.23-4.51,74,74,0,0,1,24.34,2.32Q1315.66,269.62,1320.39,278.65Z"/><path class="cls-3" d="M1438.72,522q25.71-12.87,54.93-25.77t59.15-23.19a489.34,489.34,0,0,1,58.37-16.25q28.44-6,51.95-5.41a6.65,6.65,0,0,1-1,4,39.48,39.48,0,0,1-3,4.84c-1.19,1.66-2.49,3.68-3.91,6.09l-1.63,6.8-18.62,12.81,15.12-.81a90,90,0,0,0-7.89,5.09,63.74,63.74,0,0,0-7.05,5.22,59.52,59.52,0,0,0-6.35,6.2,45.68,45.68,0,0,0-8.46,11.72,18.23,18.23,0,0,1-7.37,8.28q-2.13.35-21.52,8.38T1542,552.68q-30,14.67-67.25,35.39a791.49,791.49,0,0,0-73.84,46.81q-5.87,4.22-14.83-4.14a82.33,82.33,0,0,1-16-21.11,77.46,77.46,0,0,1-8.89-26.33q-1.92-13.57,7.3-20.52a75.12,75.12,0,0,1,10.38-6.58q-3.69-22.82-7.9-50.46t-8.84-56.3q-4.64-28.67-9.45-56.75t-9.52-52.1q-4.71-24-9.22-41.81t-8-25.93q5.58-2.53,12.14-5.78,5.66-2,13.15-4.57a52.28,52.28,0,0,1,15.61-2.81q20.79-6.08,51.41-12.13t61.88-11.37q31.26-5.33,58.42-9.18t39.89-5.92a12,12,0,0,0,.07,3.81l.78,4.77.85,5.31a19.34,19.34,0,0,0-5.32,4.13,50.26,50.26,0,0,0-4.71,4.57,67.18,67.18,0,0,0-4.53,5.64,23.93,23.93,0,0,1-2.53,2.86c-1.1,1.09-2.27,2.27-3.51,3.56a20.59,20.59,0,0,1-4.71,4.58l10.71-1.19L1549.51,271l.5,6.45q-5.41,3.6-10.37,6.58a63.21,63.21,0,0,1-7.67,4.78q-3.77,2-4.74,2.67c-.72.12-4.25,1.24-10.62,3.36s-14.3,4.76-23.77,7.93-20.07,6.7-31.78,10.59-23.27,7.67-34.66,11.32c.34,2.13.6,4.27.76,6.41s.43,4.3.77,6.42q1.18,10.71,2.2,20.34t1.5,19.36q17.17-4.95,35.75-9.6t36.42-8.88q17.82-4.25,33.44-7.05t26.23-4.52c.29,1.78-.06,4.19-1,7.25q-.73,2.3-1.44,4.58l-.07,13.08-15,11.69,7-.58-15.71,14,1.39,5.22-18.34,7.87-2.68,7q-4.87,3.53-9.84,6.5-3.91,2.81-8.12,5.39t-6.69,4.08a50.83,50.83,0,0,0-6.41,2.4q-5.37,2.24-13.47,6t-17.49,8q-9.4,4.24-19.13,8,1.3,21.57,1.76,37.83T1438.72,522Z"/><path class="cls-3" d="M1893,313.44q3.27,20.18,0,36.77A100.84,100.84,0,0,1,1882,380.3a107.57,107.57,0,0,1-19.16,24.61A167.64,167.64,0,0,1,1838,424.72a201,201,0,0,1,31,55.17q11.13,30.06,9.24,55.42a151.58,151.58,0,0,0-7.09-33.71,186.09,186.09,0,0,0-10.66-25.51,146.27,146.27,0,0,0-14.39-21.63q8.39,18.24,15,35.16,5.6,14.36,9.89,29.17t3,23.75a4.16,4.16,0,0,1-1-.94,4.57,4.57,0,0,0-1-.93l-1.23-.89a20.57,20.57,0,0,1-2.86,5.91c-.83,1.59-1.67,3.09-2.54,4.5s-1.65,2.17-2.35,2.28a10.75,10.75,0,0,1-3.06,1.31c-1.39.41-2.93.93-4.65,1.57a47.63,47.63,0,0,0-5.57,2.54l-5.64-4.54a219.81,219.81,0,0,0-33.9-54.69,490.43,490.43,0,0,0-42-44.12,259.13,259.13,0,0,1-26.11,6.94q-12.12,2.52-20.61,3.88l-3.18.52q.9,12.39,2,22.55t1.77,17.68q.84,8.58,1.35,15a28.89,28.89,0,0,1-2,4.68c-.48,1.53-1.1,3.27-1.88,5.2s-1.7,4.09-2.77,6.45q-.72,2.29-2.06,5.77a63.36,63.36,0,0,0-2.33,7.46c-1,3.07-1.9,6.3-2.79,9.71a31.28,31.28,0,0,0-3.46,2.19,23.57,23.57,0,0,0-5.51,6.34c-.24.78-.47,1.63-.67,2.56s-.56,2.19-1,3.71a18.38,18.38,0,0,0-.83,5l-4.33.16-4.73,11.11-2.3-.71a9,9,0,0,0-2.83-.63,7.81,7.81,0,0,0-2.8,4.53c-.57,2.09-1.39,3.22-2.45,3.39q-1.05-3.09-3.64-15.74t-6.48-31.63q-3.88-19-8.59-43t-9.53-50.47a86,86,0,0,1-25.55-16.56q-12.15-11.1-21-28.74a92.86,92.86,0,0,1-3.31-8.72,34.94,34.94,0,0,1-2.33-12.69q1.92,5.13,4.76,10.94t5.87,11a73.85,73.85,0,0,0,6.11,9.09,19.15,19.15,0,0,0,5.45,5.1,121.56,121.56,0,0,1-14.77-27.29q-4.85-13.11-4.18-22.47,6.39,12.58,37.48,19.53-5.37-26.36-10.72-51.09t-10-46.32A312,312,0,0,0,1587,310.67q-6.7-1.08-14-8.9a67.07,67.07,0,0,1-11.89-18,58.75,58.75,0,0,1-5.3-20.93q-.64-10.78,5.22-18.27,3.2-3.78,17.51-11.28A298.39,298.39,0,0,1,1615,217.91a482.85,482.85,0,0,1,49.65-14.57,356.15,356.15,0,0,1,56.3-8.84,271,271,0,0,1,57.18,1.64,141.77,141.77,0,0,1,51.8,17.21q23.41,13.38,40.4,37.58T1893,313.44Zm-43.8-8.16Q1847.87,294,1837,285.46t-30.66-12.73q-19.74-4.17-47.67-3.46t-63.23,8.06a71.15,71.15,0,0,1,1.94,8.67l1.59,9.82q3.6,25.56,6.7,51.47t5.55,51.12a221.63,221.63,0,0,0,48.9-14.18,278.38,278.38,0,0,0,45.23-23.39q20.21-13.06,32.57-27.6T1849.16,305.28Z"/><path class="cls-3" d="M2142.54,186.45q7.18,68,13.77,115.41T2168.84,381q6,31.71,10.59,50.29t7.73,29.25q3.09,10.68,4.44,15.62a23.54,23.54,0,0,1,.88,8.84,31.22,31.22,0,0,1-6,11.87A52.83,52.83,0,0,1,2174.7,508,48.2,48.2,0,0,1,2159,515.2a37.58,37.58,0,0,1-17.36.36q-8.76-1.84-17.06-9.5T2110,483.63q-17.25-19-35.07-41.7t-35.62-46.79q-17.79-24.09-35.13-48.78t-34.11-47.58q2.91,34.94,5.42,67.2t3.89,57.64q2.05,29.64,3.45,55l-3.44-1.08-8.72,30.27-7.27,5.54-3.37,19.6-7.31-4.8L1948.5,549l-3.72.6a10.16,10.16,0,0,0-3.09,1,20.91,20.91,0,0,0-2.49,1.49q-2.4,2-5.33,7.4-1.23-4.15-4.24-21.09T1922.5,496L1913.27,439q-5.12-31.57-10.75-64.71t-11.18-65.73q-5.55-32.59-11.12-60.28t-10.42-47.61q-4.86-19.89-8.44-28.58,2.48-1.49,5.49-3.07a63.17,63.17,0,0,1,15.49-5.23,96.3,96.3,0,0,1,22.55-10.45,64.22,64.22,0,0,1,24-3.08,56.44,56.44,0,0,1,22.55,6.43q10.72,5.63,17.64,18.12,14.1,26.58,30.55,54.14t33,54q16.55,26.46,31.85,50.4T2092,375.45q-3.45-38.1-6.34-79.57t-4.35-79.09q-1.47-37.6-1.86-67t1.18-43.21c.82.6,1.82,2.79,3,6.59s2.15,6,3,6.6,1.35-.57,1.61-3.53.78-4.11,1.61-3.52a14.12,14.12,0,0,1,2.19,3.45,69.23,69.23,0,0,1,3,6.6c.93,2.4,1.93,4.69,3,6.86a35.7,35.7,0,0,0,2.32,4.26q1.84,1.33,6.1.65a12.21,12.21,0,0,0,3.63-1.13q5.52,7.28,10.62,15.16,4.4,6.93,9.56,15.34t9.91,17.45C2141.13,183.42,2142,185.1,2142.54,186.45Z"/><path class="cls-4" d="M138.92,947.61q7.23-10,47.77-24.78T289.1,896.15q61.83-11.89,139-18.71a992.09,992.09,0,0,1,158.34-1,840.5,840.5,0,0,1,161.08,27.6q79.92,21.83,145.82,66.08T1006,1084.51q46.69,70.13,63.25,172.27,10.69,74-7.5,133.19t-54.5,104.17a363.29,363.29,0,0,1-85.42,77,656.2,656.2,0,0,1-98.74,53.23q-49.61,21.29-94.34,33.57t-73,16.88c-4.11.67-9.07,1.27-14.86,1.77s-12.07.91-18.76,1.15l-4.8,17.19-22.35,2.35-7.53,31.53-14.13-1.5a32.14,32.14,0,0,1-2.5,8q-3.74,8.19-6.19,8.58-2.24-6-5.83-24.31t-9.41-46.47a314.49,314.49,0,0,1-65.81-20.3q-33.25-14.18-62.51-42.92t-52.13-72.4Q346,1493.8,335.67,1429.79q3.31-10.62,7.46-16.36,3.09-4.29,6.46-2.94c2.24.9,4.25,6.7,6,17.35q3.78,23.39,48.36,45.21t112.6,28.52q-10.39-56.4-22.2-117.66T470,1264.71q-12.54-57.93-24.17-110.38t-22.94-91Q315.2,1077,205.12,1122.55q-17-3.55-34.83-24a188.22,188.22,0,0,1-29.71-47,163.72,163.72,0,0,1-14-55.21Q124.5,967.64,138.92,947.61Zm486.87,550.16a5.41,5.41,0,0,0,2.36-1,5.52,5.52,0,0,1,2.36-1L607,1350.52l12.42,147a5.69,5.69,0,0,1,2.56.22A8.47,8.47,0,0,0,625.79,1497.77Zm334.92-263.85q-3-26-30.28-54.45T854.84,1126q-48.27-25-113.75-43.48t-143.57-24.76q8.18,50.48,16,110.45t14.91,119.46q7.08,59.47,13.21,112.79t11,91.67q55.8-14.06,112.32-43.43t101-66.24q44.54-36.87,71.07-75.92T960.71,1233.92Z"/><path class="cls-4" d="M1249.21,1385.52q57.94-32.12,125.53-63.25t136.87-55.62a1234.14,1234.14,0,0,1,135.05-39.54q65.76-15,121.31-15.2-1.08,9-9.32,20.44c-2.76,3.83-5.79,8.52-9.08,14.11l-3.77,15.76-43,31,35.06-1.88a209.69,209.69,0,0,0-18.29,11.8,149.22,149.22,0,0,0-16.35,12.12,133.55,133.55,0,0,0-14.73,14.38q-12.57,15.95-18.17,28.2a43.49,43.49,0,0,1-15.87,19q-4.93.81-49.8,20.06t-114.32,54.5q-69.45,35.24-154.22,84.94T1166.4,1646.46q-13.58,9.78-34.91-8.87t-38-47.53a176.15,176.15,0,0,1-21.76-60.26q-5.07-31.38,15.09-47.27,5.75-3.45,12-7.64t13.26-7.82q-9.81-52.71-20.77-116.62t-22.95-130.16q-12-66.26-24.39-131.19t-24.54-120.43q-12.15-55.49-22.6-96.75T977.05,812q14-7.31,29.18-14.82,28.14-13.38,66.69-17.11,46.8-15.15,118.2-30.5t143.1-28.84q71.7-13.49,134.47-23.65l92.3-14.94a19.53,19.53,0,0,0,.78,8.72,92.74,92.74,0,0,1,2.41,11l2,12.31a44.44,44.44,0,0,0-12.34,9.57,114,114,0,0,0-10.92,10.61,151.7,151.7,0,0,0-10.51,13.07,54.38,54.38,0,0,1-5.87,6.63q-3.83,3.78-8.14,8.27l-10.71,11.83,24.61-4-35.8,28.53,1.17,15q-12.57,8.37-24.06,15.26-9.06,6.54-17.68,11.71c-5.76,3.45-9.39,5.74-10.9,6.81q-2.48.4-24.63,7.77t-55,19q-32.86,11.66-72.88,25.69t-79.46,28q1.2,7.38,1.78,14.87c.37,5,1,10,1.77,14.87q2.76,24.82,5.72,47.07t4.1,44.8q39.81-11.48,83.33-23.59t84.85-21.94q41.34-9.83,77.36-17.57t60.62-11.71a23.92,23.92,0,0,0-.65,7.69,20.09,20.09,0,0,1-1.69,9.11q-1.68,5.34-3.32,10.65l-.15,30.33-34.56,28.32,16-2.58L1472,1091.83l4.46,11.91-42.32,19.48-5,16q-11.31,8.16-22.82,15.06-9.06,6.52-18.71,13.13t-15.42,10.07q-2.48.39-15.4,6.28t-31.12,14.51q-18.19,8.63-40.57,18.56t-43.55,19.68q4.29,49.83,6,87.44T1249.21,1385.52Z"/><path class="cls-4" d="M2209.23,653a112,112,0,0,1,5.93,24.92,116.63,116.63,0,0,1,.41,22q-5.3,29.92-25.1,106.36T2150.56,989q-20.08,106.2-35.63,232.47A1736.48,1736.48,0,0,0,2102.46,1476q-106.77,34.95-156.13,30.31t-61.9-43q-11.12,9.38-20,12.72t-13.82-3.45q-6.08-14.17-21.19-49t-36.91-83.7q-21.81-48.86-48.27-107.11T1689,1114.17q-28.73-60.37-59.6-118.54T1570,889.69q-28.56-47.78-55.47-81.33T1466.74,763q55.38-48.09,111.78-58.49a174.79,174.79,0,0,1,49.8-.49q26.4,3.3,52.58,20.54t51,49.84q24.84,32.63,47.55,87,18.64,45,39.43,91.49t40.15,92q19.35,45.51,36.38,88.2t29.34,79.87q19.5-97.87,41.77-186.73T2014,855.09q25.18-82.37,53.54-160.85T2129,539.68q3.28-3,5.2,4.84a22.08,22.08,0,0,0,9.06,13.06q2.85,2.08,8.41-2.62t8.62-1.4c1.07,1.53,2.15,4.29,3.24,8.32a124.06,124.06,0,0,0,3.84,12,109.15,109.15,0,0,1,4,17,57.09,57.09,0,0,1,8.18,3.73c1.9,1.39,4.32,3.3,7.25,5.77a38,38,0,0,1,7.84,9.47c.27,1.65.62,5.16,1.08,10.55a112.58,112.58,0,0,1-.19,18.35,196.2,196.2,0,0,0,.09,24,32.42,32.42,0,0,1,6.19-8.58Q2208.44,648.09,2209.23,653Z"/><path class="cls-3" d="M2045.34,1392.94q5.44-6.26,15.11-11.32a55.74,55.74,0,0,1,45.84-2.58q12.86,4.65,24.57,17.27a48.8,48.8,0,0,1,3.58,18.78,150.57,150.57,0,0,1-1.19,20.9,164.07,164.07,0,0,1-3.09,17.44q-1.78,7.29-1.61,8.33.06,3.77-3.92,7.36a31.65,31.65,0,0,1-10.33,6,62.47,62.47,0,0,1-14.24,3.38,38.05,38.05,0,0,1-15.23-1,175.27,175.27,0,0,1-19.47-25.62,221.52,221.52,0,0,1-13.81-25.46,96.94,96.94,0,0,1-7.18-21.16Q2042.63,1396.08,2045.34,1392.94Z"/><path class="cls-3" d="M2392.1,1265.83q15,33.06,14.36,65.44T2392.3,1390a125.14,125.14,0,0,1-38.74,44.72q-25.28,18.35-59.86,23.94a145.53,145.53,0,0,1-54-1.48,129.76,129.76,0,0,1-50.82-23.23q-23.54-17.45-40.67-46.94t-22.53-72.72q-6.57-50.58,5.18-89.31t33.17-65.88q21.42-27.12,48.73-42.84t51.55-20.45q24.26-4.72,41.89,1.29T2326,1120a86.46,86.46,0,0,1,.74,19.51,132.7,132.7,0,0,1-3.07,20.93,83.7,83.7,0,0,1-6.41,18.52q-4.07,8.19-9.92,11.82-22.67-7.08-42.27-5.26a95.52,95.52,0,0,0-64.17,32.17,133.13,133.13,0,0,0-20.17,29.89,123.86,123.86,0,0,0-10.94,33.77,113.45,113.45,0,0,0-.95,34q1.51,12.67,10.57,25.45a87.79,87.79,0,0,0,23.81,22.5,113.78,113.78,0,0,0,33.58,14.74q18.82,5,40.32,1.54a104.22,104.22,0,0,0,44.91-18.29,159.89,159.89,0,0,0,33.31-31.75q13.57-17.52,20.16-35t5-27.43q-1.18-7.34.52-8.42c1.13-.72,2.52-.49,4.14.68A61.15,61.15,0,0,1,2392.1,1265.83Z"/><path class="cls-3" d="M2483.17,1319.79a65.08,65.08,0,0,1-30.56-7.5,125.89,125.89,0,0,1-36.09-27.94,176.56,176.56,0,0,1-26.29-38.19c-6.76-13.35-11-25.3-12.68-35.52-2.75-17-3.4-33-1.93-47.51,1.49-14.77,3.9-27.68,7.17-38.38s6.63-19,10.06-25.11c2.71-4.8,4.21-7.11,4.93-8.14a15.85,15.85,0,0,1,7.65-1.92h.79a38.48,38.48,0,0,1,13.28,2.93,44.71,44.71,0,0,1,11.4,6.74c1.48,1.24,2.51,2.21,3.22,2.93l-.36.16-1.89,5c-2.91,7.62-6.07,17.42-9.65,30-3.92,13.76-4.27,30.82-1,50.72,2.56,15.85,6.56,29.31,11.88,40s11,19.25,17.1,25.65c6.29,6.61,12.23,11.19,18.13,14,6.09,2.93,10.08,4.14,13.75,4.14a13.18,13.18,0,0,0,1.41-.07c7.69-.46,13.7-5.87,17.59-10,5-5.27,9.24-12.44,12.9-21.91,3.4-8.77,5.87-19.56,7.35-32.07s.9-27.35-1.76-43.8c-3.45-21.34-9-37.07-16.91-48.1s-15.86-18.52-24.31-23.05l-.11-.06A53.41,53.41,0,0,0,2472,1090c1.65-.13,3.46-.22,5.43-.25h.79c9.92,0,20.38,2.62,31.1,7.77,11.06,5.32,21.63,14.24,31.42,26.51,9.61,12,16.28,29.24,19.81,51.08a200.43,200.43,0,0,1,1.79,53.12c-1.76,16.58-5.79,31.59-12,44.6a93.87,93.87,0,0,1-23.82,31.68,62.59,62.59,0,0,1-33,14.54A73.73,73.73,0,0,1,2483.17,1319.79Z"/><path class="cls-3" d="M2519.15,1119.22a102.25,102.25,0,0,1,11.8,12.6c8.25,10.35,14.06,25.59,17.24,45.29a188.15,188.15,0,0,1,1.7,49.8c-1.62,15.17-5.26,28.82-10.84,40.57a80.34,80.34,0,0,1-20.62,27.51,50.32,50.32,0,0,1-26.61,11.67h-.09a61.37,61.37,0,0,1-8.56.61,53,53,0,0,1-24.83-6.11,113.55,113.55,0,0,1-32.52-25.18,164.24,164.24,0,0,1-24.44-35.49c-6.17-12.2-10-22.92-11.49-31.87-2.58-15.94-3.2-30.83-1.83-44.26,1.4-14,3.66-26.05,6.69-36q1.26-4.14,2.54-7.77l16.4,1.39c-1.12,3.66-2.28,7.58-3.49,11.81-4.49,15.74-4.94,34.11-1.37,56.14,2.8,17.33,7.07,31.59,13,43.58s12.26,21.4,19.24,28.71c7.35,7.71,14.46,13.16,21.74,16.66,7.83,3.77,13.57,5.38,19.19,5.38.78,0,1.56,0,2.34-.1,13.42-.89,22.63-10.56,25.72-13.81,6.17-6.49,11.24-15,15.49-26,3.84-9.89,6.49-21.38,8.11-35.12s1-29.67-1.83-47.27c-2.81-17.36-7-31.48-12.71-42.78m-113.72-42.14a28.32,28.32,0,0,0-15.68,4.66q-1.93,1.4-7.78,11.74t-11.13,27.62q-5.28,17.26-7.66,40.77t2,50.76q2.8,17.31,13.87,39.17a188.41,188.41,0,0,0,28.13,40.9,137.68,137.68,0,0,0,39.66,30.69,78,78,0,0,0,36.3,8.9,85.59,85.59,0,0,0,12.06-.86,75.38,75.38,0,0,0,39.4-17.4,105.81,105.81,0,0,0,27-35.84q10.23-21.54,13.11-48.64a212.31,212.31,0,0,0-1.88-56.44q-5.85-36.16-22.38-56.88t-35.78-30q-18.72-9-36.51-9h-1q-18.26.27-27.44,6.59c-2.28,1.45-3.64,3-4.08,4.7s-.79,2.91-1,3.66c.11.7.75,1.31,1.91,1.84a17.69,17.69,0,0,1,2.35,1.23c.51,1,.13,2-1.15,2.88-.25.18-.53.37-.84.56a6.72,6.72,0,0,1,.45,1.09h.12a40.38,40.38,0,0,1,6.61-.55,38.81,38.81,0,0,1,18.25,4.59q10,5.37,20.07,19.34t14.72,42.8q3.74,23.05,1.69,40.33t-6.6,29q-4.55,11.78-10.29,17.81t-9.5,6.1a2.15,2.15,0,0,1-.45,0c-1.53,0-4.32-1-8.35-2.92q-6.72-3.21-14.48-11.37t-14.95-22.59q-7.18-14.43-10.74-36.44-4.41-27.26.73-45.3t9.31-28.94a6.91,6.91,0,0,0,4.35-6.35,15.1,15.1,0,0,0-.49-5.59l-2.06-.18c.6-.31,1.14-.62,1.61-.91a2.42,2.42,0,0,0-.21-.39q-1.65-3.49-7.86-8.68a56.91,56.91,0,0,0-14.58-8.67,51.19,51.19,0,0,0-17.57-3.88l-1.31,0Z"/><path class="cls-3" d="M2404.32,1377.87a128.18,128.18,0,0,1,30.2-17.79,217.22,217.22,0,0,1,38.07-12.35,357.27,357.27,0,0,1,40.58-6.83,263.53,263.53,0,0,1,37.93-1.57,126.15,126.15,0,0,1,30.57,4.47q13,3.81,18.28,9.94c.06.36-.26.59-1,.7a4,4,0,0,1-1.66-.27l8.17,7.28-4,1.73,5.21,5.61a38.57,38.57,0,0,1,3.47,4.82c1,1.64,1.35,2.83,1.12,3.58-.19,1.11-.35,2.84-.51,5.19s-.39,4.82-.69,7.37a62.29,62.29,0,0,0-1.09,9.86l-5.14-1.86a217.77,217.77,0,0,0-42.79,4.78,366.41,366.41,0,0,0-41.21,11.24,403.46,403.46,0,0,0-38.17,15q-18.3,8.33-33.68,16.21-12.87,6.92-22.75,2.33t-15.68-15.48q-5.81-10.87-7.39-25.69A75.25,75.25,0,0,1,2404.32,1377.87Z"/><g id="g10"><g id="g12"><g class="cls-5"><g id="g14"><g id="g20"><path id="path22" class="cls-6" d="M2400.7,1170.62s9.86-24.89,28-32.46c21.67-9.05,35.38,5.74,35.38,5.74s-3.7-15.07,11.78-21.54,29.17.81,29.17.81-9.47,12.78-12.58,15.9c-8.21,8.22-35,29.41-50.62,31.78s-41.12-.23-41.12-.23"/></g><g id="g24"><path id="path26" class="cls-4" d="M2461.92,1148.69s2.36-4.71,19.9-12c23.15-9.66,49.57-.7,61.56,28,17,40.8-26.51,85.37-26.51,85.37s-72.51,25.78-97.41-33.86c-14.71-35.23,4.71-55.88,19.75-62.16,17.54-7.32,22.71-5.33,22.71-5.33"/></g><g id="g28"><path id="path30" class="cls-7" d="M2400.7,1170.62s9.86-24.89,28-32.46c21.67-9.05,35.38,5.74,35.38,5.74s-6.62,24.58-22.25,26.95-41.12-.23-41.12-.23"/></g><g id="g32"><path id="path34" class="cls-8" d="M2515.06,1226.23a3.84,3.84,0,0,1-5.24-4.28c0-.1,2.19-13-7.47-36.12-9.52-22.81-31.24-29.27-31.46-29.33a3.83,3.83,0,1,1,2.12-7.37c1,.3,25.49,7.57,36.42,33.74,10.66,25.55,8,40,7.92,40.55a3.83,3.83,0,0,1-2.29,2.81"/></g></g></g></g></g></g></g></svg>